<?xml version="1.0" encoding="UTF-8"?><svg id="Layer_1" xmlns="http://www.w3.org/2000/svg" viewBox="0 0 391.58 391.58"><defs><style>.cls-1{fill:#f4a32a;}.cls-2{fill:#f39d29;}.cls-3{fill:#f06b26;}.cls-4{fill:#ee3f24;}.cls-5{fill:#ee4724;}.cls-6{fill:#f07726;}.cls-7{fill:#f07126;}.cls-8{fill:#ee5025;}.cls-9{fill:#f28828;}.cls-10{fill:#ee3624;}.cls-11{fill:#f29229;}.cls-12{fill:#f28d28;}.cls-13{fill:#ed2a24;}.cls-14{fill:#f5a82a;}.cls-15{fill:#f5ae2b;}.cls-16{fill:#ef6525;}.cls-17{fill:#ef5e25;}.cls-18{fill:#fff;}.cls-19{fill:#ed1c24;}.cls-20{fill:#f39829;}.cls-21{fill:#ef5725;}.cls-22{fill:#f18227;}.cls-23{fill:#f17d27;}</style></defs><rect class="cls-18" width="391.58" height="391.58"/><g><polygon class="cls-15" points="142.42 138.46 126.53 138.46 126.53 269.1 257.17 269.1 257.17 253.72 142.42 253.72 142.42 138.46"/><polygon class="cls-19" points="281.36 114.48 150.73 114.48 150.73 129.87 265.47 129.87 265.47 245.12 281.36 245.12 281.36 114.48"/></g><g><rect class="cls-15" x="158" y="179.8" width="58.05" height="58.05"/><rect class="cls-14" x="159.38" y="178.18" width="58.05" height="58.05"/><rect class="cls-1" x="160.76" y="176.56" width="58.05" height="58.05"/><rect class="cls-2" x="162.15" y="174.93" width="58.05" height="58.05"/><rect class="cls-20" x="163.53" y="173.31" width="58.05" height="58.05"/><rect class="cls-11" x="164.91" y="171.69" width="58.05" height="58.05"/><rect class="cls-12" x="166.29" y="170.07" width="58.05" height="58.05"/><rect class="cls-9" x="167.67" y="168.45" width="58.05" height="58.05"/><rect class="cls-22" x="169.06" y="166.82" width="58.05" height="58.05"/><rect class="cls-23" x="170.44" y="165.2" width="58.05" height="58.05"/><rect class="cls-6" x="171.82" y="163.58" width="58.05" height="58.05"/><rect class="cls-7" x="173.2" y="161.96" width="58.05" height="58.05"/><rect class="cls-3" x="174.58" y="160.33" width="58.05" height="58.05"/><rect class="cls-16" x="175.97" y="158.71" width="58.05" height="58.05"/><rect class="cls-17" x="177.35" y="157.09" width="58.05" height="58.05"/><rect class="cls-21" x="178.73" y="155.47" width="58.05" height="58.05"/><rect class="cls-8" x="180.11" y="153.84" width="58.05" height="58.05"/><rect class="cls-5" x="181.5" y="152.22" width="58.05" height="58.05"/><rect class="cls-4" x="182.88" y="150.6" width="58.05" height="58.05"/><rect class="cls-10" x="184.26" y="148.98" width="58.05" height="58.05"/><rect class="cls-13" x="185.64" y="147.36" width="58.05" height="58.05"/><rect class="cls-19" x="187.02" y="145.73" width="58.05" height="58.05"/></g></svg>