<?xml version="1.0" encoding="UTF-8"?><svg id="Layer_1" xmlns="http://www.w3.org/2000/svg" viewBox="0 0 792 391.58"><defs><style>.cls-1{fill:#f4a32a;}.cls-2{fill:#f39d29;}.cls-3{fill:#f06b26;}.cls-4{fill:#ee3f24;}.cls-5{fill:#ee4724;}.cls-6{fill:#f07726;}.cls-7{fill:#f07126;}.cls-8{fill:#ee5025;}.cls-9{fill:#f28828;}.cls-10{fill:#ee3624;}.cls-11{fill:#f29229;}.cls-12{fill:#f28d28;}.cls-13{fill:#ed2a24;}.cls-14{fill:#f5a82a;}.cls-15{fill:#f5ae2b;}.cls-16{fill:#ef6525;}.cls-17{fill:#ef5e25;}.cls-18{fill:#ed1c24;}.cls-19{fill:#f39829;}.cls-20{fill:#ef5725;}.cls-21{fill:#f18227;}.cls-22{fill:#f17d27;}.cls-23{fill:#231f20;}</style></defs><g><path class="cls-23" d="M253.79,190.71c-1.75,1.97-4.08,3.76-7.26,3.76s-4.88-1.66-6-3.76l-13.89-26.74h12.72l9.41,18.63,16.71-18.63h12.23l-23.92,26.74Z"/><path class="cls-23" d="M275.86,193.93l5.29-29.97h10.35l-5.29,29.97h-10.35Z"/><path class="cls-23" d="M292.08,193.93l3.31-18.68h10.39l-1.79,10.08h10.03c5.38,0,9.36-2.15,9.36-7.57,0-3.4-3.05-5.06-7.17-5.06h-20.38l8.11-8.74h13.84c9.68,0,16.04,5.2,16.04,12.72,0,9.63-9.68,17.25-21.32,17.25h-20.43Z"/><path class="cls-23" d="M335.61,193.93l5.33-29.97h35.39l-8.29,8.74h-18.32l-.4,2.51h23.2l-7.08,7.3h-17.43l-.49,2.82h25.13l-8.2,8.6h-28.85Z"/><path class="cls-23" d="M395.59,194.42c-13.21,0-19.93-4.03-19.93-12.77,0-12.32,8.33-18.19,25.44-18.19,13.21,0,19.93,3.99,19.93,12.68,0,12.36-8.38,18.28-25.44,18.28Zm3.9-22.22c-12.01,0-13.39,1.3-13.39,8.38,0,4.44,3.18,5.11,11.06,5.11,12.01,0,13.39-1.34,13.39-8.42,0-4.39-3.18-5.06-11.06-5.06Z"/><path class="cls-23" d="M457.48,193.93c-9.5,0-15.81-5.64-15.81-13.21,0-9.86,9.5-16.75,21.1-16.75h21.99l-8.29,8.74h-15.28c-4.84,0-9.18,3.18-9.18,7.3,0,3.27,2.78,5.33,6.99,5.33h10.88l.49-3.05h-15.05l7.62-7.48h19.08l-3.36,19.13h-21.19Z"/><path class="cls-23" d="M497.25,193.93l7.79-8.6h6.72c1.43,0,3.14,0,4.03,.09-.31-.49-1.12-1.88-1.57-2.82l-3.67-7.3-16.71,18.63h-12.27l23.88-26.7c1.79-2.02,4.12-3.81,7.35-3.81s4.84,1.66,5.96,3.81l13.93,26.7h-35.43Z"/><path class="cls-23" d="M579.35,193.93l-.99-11.83c-.09-.94-.09-1.93-.09-2.78,0-1.03,.05-1.93,.13-2.55-1.21,1.84-2.46,3.63-5.6,7.79l-4.66,6.14c-2.37,3.14-3.9,3.76-6.27,3.76-2.73,0-4.3-.31-5.6-3.76l-2.78-7.17c-1.57-4.03-2.06-5.42-2.46-6.76-.45,1.43-1.12,3.22-1.93,5.11l-5.15,12.05h-10.17l11.83-25.85c1.43-3.14,3.99-4.66,6.63-4.66s4.12,1.39,5.02,3.54l3.49,8.24c1.97,4.61,2.6,6.23,3.05,7.7,.99-1.48,2.2-3.05,5.78-7.66l6.36-8.29c1.61-2.06,3.58-3.54,6.32-3.54,2.46,0,4.66,1.52,5.02,4.66,.81,8.6,1.57,17.25,2.42,25.85h-10.35Z"/><path class="cls-23" d="M593.14,193.93l5.33-29.97h35.39l-8.29,8.74h-18.32l-.4,2.51h23.2l-7.08,7.3h-17.43l-.49,2.82h25.13l-8.2,8.6h-28.85Z"/></g><g><polygon class="cls-15" points="139.21 165.81 130.83 165.81 130.83 234.7 199.72 234.7 199.72 226.59 139.21 226.59 139.21 165.81"/><polygon class="cls-18" points="212.48 153.16 143.59 153.16 143.59 161.27 204.1 161.27 204.1 222.05 212.48 222.05 212.48 153.16"/></g><g><rect class="cls-15" x="147.42" y="187.61" width="30.61" height="30.61"/><rect class="cls-14" x="148.15" y="186.75" width="30.61" height="30.61"/><rect class="cls-1" x="148.88" y="185.9" width="30.61" height="30.61"/><rect class="cls-2" x="149.61" y="185.04" width="30.61" height="30.61"/><rect class="cls-19" x="150.34" y="184.19" width="30.61" height="30.61"/><rect class="cls-11" x="151.07" y="183.33" width="30.61" height="30.61"/><rect class="cls-12" x="151.79" y="182.47" width="30.61" height="30.61"/><rect class="cls-9" x="152.52" y="181.62" width="30.61" height="30.61"/><rect class="cls-21" x="153.25" y="180.76" width="30.61" height="30.61"/><rect class="cls-22" x="153.98" y="179.91" width="30.61" height="30.61"/><rect class="cls-6" x="154.71" y="179.05" width="30.61" height="30.61"/><rect class="cls-7" x="155.44" y="178.2" width="30.61" height="30.61"/><rect class="cls-3" x="156.17" y="177.34" width="30.61" height="30.61"/><rect class="cls-16" x="156.9" y="176.49" width="30.61" height="30.61"/><rect class="cls-17" x="157.62" y="175.63" width="30.61" height="30.61"/><rect class="cls-20" x="158.35" y="174.77" width="30.61" height="30.61"/><rect class="cls-8" x="159.08" y="173.92" width="30.61" height="30.61"/><rect class="cls-5" x="159.81" y="173.06" width="30.61" height="30.61"/><rect class="cls-4" x="160.54" y="172.21" width="30.61" height="30.61"/><rect class="cls-10" x="161.27" y="171.35" width="30.61" height="30.61"/><rect class="cls-13" x="162" y="170.5" width="30.61" height="30.61"/><rect class="cls-18" x="162.73" y="169.64" width="30.61" height="30.61"/></g><g><path class="cls-23" d="M233.19,203.44h4.8v9.53h10.03v-9.53h4.8v25.02h-4.8v-11.17h-10.03v11.17h-4.8v-25.02Z"/><path class="cls-23" d="M265.99,203.44h4.8v25.02h-4.8v-25.02Z"/><path class="cls-23" d="M295.54,208.34c-1.11-.8-2.62-1.44-3.99-1.44-2.21,0-3.05,1.07-3.05,2.18,0,1.48,1.24,2.48,3.86,4.66,4.16,3.49,5.6,5.63,5.6,8.25,0,4.29-3.66,6.88-8.32,6.88-2.18,0-5-.71-6.94-1.88l1.81-3.76c1.58,.91,3.25,1.68,5.17,1.68,2.25,0,3.42-1.38,3.42-2.78,0-1.54-1.24-2.82-4.06-5.13-3.99-3.29-5.5-5-5.5-7.88,0-3.15,2.45-6.17,7.95-6.17,1.95,0,4.16,.67,5.87,1.64l-1.81,3.76Z"/><path class="cls-23" d="M312.44,207.73h-4.39v-4.29h13.58v4.29h-4.39v20.73h-4.8v-20.73Z"/><path class="cls-23" d="M359.3,215.92c0,7.38-6.07,13.35-13.79,13.35s-13.79-5.97-13.79-13.35,6.04-13.28,13.79-13.28,13.79,5.94,13.79,13.28Zm-22.74,0c0,4.86,3.96,8.96,8.96,8.96s8.96-4.06,8.96-8.96-3.92-8.89-8.96-8.89-8.96,4.06-8.96,8.89Z"/><path class="cls-23" d="M376.74,219.3h-.34v9.16h-4.8v-25.02h6.51c5.13,0,9.22,2.25,9.22,7.98,0,3.59-2.35,6-5.33,7.14l7.82,9.9h-5.8l-7.28-9.16Zm-.34-11.57v7.68h1.78c2.68,0,4.39-1.54,4.39-3.92,0-2.25-1.54-3.76-4.36-3.76h-1.81Z"/><path class="cls-23" d="M411.18,220.44v8.02h-4.8v-7.95l-8.62-17.07h5.23l5.84,12.48,6.07-12.48h4.9l-8.62,17.01Z"/><path class="cls-23" d="M451.69,228.46h-4.76v-25.02h4.96l8.18,12.78,7.85-12.78h4.9v25.02h-4.76v-16.7l-7.71,12.14h-.67l-7.98-12.24v16.81Z"/><path class="cls-23" d="M495.83,229.27c-6.37,0-9.86-4.16-9.86-11.17v-14.66h4.8v15.66c0,3.82,2.45,5.8,5.07,5.8s5.1-1.98,5.1-5.8v-15.66h4.8v14.66c0,7.01-3.42,11.17-9.89,11.17Z"/><path class="cls-23" d="M530.34,208.34c-1.11-.8-2.62-1.44-3.99-1.44-2.21,0-3.05,1.07-3.05,2.18,0,1.48,1.24,2.48,3.86,4.66,4.16,3.49,5.6,5.63,5.6,8.25,0,4.29-3.66,6.88-8.32,6.88-2.18,0-5-.71-6.94-1.88l1.81-3.76c1.58,.91,3.25,1.68,5.17,1.68,2.25,0,3.42-1.38,3.42-2.78,0-1.54-1.24-2.82-4.06-5.13-3.99-3.29-5.5-5-5.5-7.88,0-3.15,2.45-6.17,7.95-6.17,1.95,0,4.16,.67,5.87,1.64l-1.81,3.76Z"/><path class="cls-23" d="M545.13,203.44h13.69v4.23h-8.89v5.87h8.08v3.92h-8.08v6.78h9.16v4.23h-13.95v-25.02Z"/><path class="cls-23" d="M581.79,229.27c-6.37,0-9.86-4.16-9.86-11.17v-14.66h4.8v15.66c0,3.82,2.45,5.8,5.07,5.8s5.1-1.98,5.1-5.8v-15.66h4.8v14.66c0,7.01-3.42,11.17-9.89,11.17Z"/><path class="cls-23" d="M609.59,228.46h-4.76v-25.02h4.96l8.18,12.78,7.85-12.78h4.9v25.02h-4.76v-16.7l-7.71,12.14h-.67l-7.98-12.24v16.81Z"/></g></svg>